<svg xmlns="http://www.w3.org/2000/svg" width="48" height="49" viewBox="0 0 48 49" fill="none">
    <path
            d="M32.68 4.13574C39.46 4.13574 44 8.89574 44 15.9757V32.3177C44 39.3757 39.46 44.1357 32.68 44.1357H15.34C8.56 44.1357 4 39.3757 4 32.3177V15.9757C4 8.89574 8.56 4.13574 15.34 4.13574H32.68ZM32.36 18.1357C31.68 17.4557 30.56 17.4557 29.88 18.1357L21.62 26.3957L18.12 22.8957C17.44 22.2157 16.32 22.2157 15.64 22.8957C14.96 23.5757 14.96 24.6757 15.64 25.3757L20.4 30.1157C20.74 30.4557 21.18 30.6157 21.62 30.6157C22.08 30.6157 22.52 30.4557 22.86 30.1157L32.36 20.6157C33.04 19.9357 33.04 18.8357 32.36 18.1357Z"
            fill="white"/>
</svg>